<mxfile host="app.diagrams.net" modified="2022-02-11T12:09:56.858Z" agent="5.0 (Macintosh; Intel Mac OS X 11_6_0) AppleWebKit/537.36 (KHTML, like Gecko) Chrome/88.0.4324.182 Safari/537.36" etag="vZs3A1VSbvwWLd5bYvVe" version="16.5.6" type="github">
  <diagram id="l4T4fhOrnfE5AkKF3f0c" name="Page-1">
    <mxGraphModel dx="1825" dy="1020" grid="0" gridSize="10" guides="1" tooltips="1" connect="1" arrows="1" fold="1" page="1" pageScale="1" pageWidth="827" pageHeight="1169" math="0" shadow="0">
      <root>
        <mxCell id="0" />
        <mxCell id="1" parent="0" />
        <mxCell id="J2HHeWsgrga7ZyG-hXfE-8" value="" style="group" vertex="1" connectable="0" parent="1">
          <mxGeometry x="1241" y="484" width="50" height="260" as="geometry" />
        </mxCell>
        <mxCell id="J2HHeWsgrga7ZyG-hXfE-1" value="" style="rounded=0;whiteSpace=wrap;html=1;fillColor=#CFE2F2;" vertex="1" parent="J2HHeWsgrga7ZyG-hXfE-8">
          <mxGeometry width="50" height="260" as="geometry" />
        </mxCell>
        <mxCell id="J2HHeWsgrga7ZyG-hXfE-2" value="" style="ellipse;whiteSpace=wrap;html=1;aspect=fixed;fillColor=#CFE2F2;" vertex="1" parent="J2HHeWsgrga7ZyG-hXfE-8">
          <mxGeometry x="5" y="10" width="40" height="40" as="geometry" />
        </mxCell>
        <mxCell id="J2HHeWsgrga7ZyG-hXfE-3" value="" style="ellipse;whiteSpace=wrap;html=1;aspect=fixed;gradientColor=none;fillColor=#000000;" vertex="1" parent="J2HHeWsgrga7ZyG-hXfE-8">
          <mxGeometry x="20" y="140" width="10" height="10" as="geometry" />
        </mxCell>
        <mxCell id="J2HHeWsgrga7ZyG-hXfE-4" value="" style="ellipse;whiteSpace=wrap;html=1;aspect=fixed;fillColor=#CFE2F2;" vertex="1" parent="J2HHeWsgrga7ZyG-hXfE-8">
          <mxGeometry x="5" y="70" width="40" height="40" as="geometry" />
        </mxCell>
        <mxCell id="J2HHeWsgrga7ZyG-hXfE-5" value="" style="ellipse;whiteSpace=wrap;html=1;aspect=fixed;gradientColor=none;fillColor=#000000;" vertex="1" parent="J2HHeWsgrga7ZyG-hXfE-8">
          <mxGeometry x="20" y="170" width="10" height="10" as="geometry" />
        </mxCell>
        <mxCell id="J2HHeWsgrga7ZyG-hXfE-7" value="" style="ellipse;whiteSpace=wrap;html=1;aspect=fixed;fillColor=#CFE2F2;" vertex="1" parent="J2HHeWsgrga7ZyG-hXfE-8">
          <mxGeometry x="5" y="200" width="40" height="40" as="geometry" />
        </mxCell>
        <mxCell id="J2HHeWsgrga7ZyG-hXfE-16" value="" style="group;fillColor=#FFFFFF;" vertex="1" connectable="0" parent="1">
          <mxGeometry x="1614" y="647" width="50" height="260" as="geometry" />
        </mxCell>
        <mxCell id="J2HHeWsgrga7ZyG-hXfE-17" value="" style="rounded=0;whiteSpace=wrap;html=1;fillColor=#CFE2F2;" vertex="1" parent="J2HHeWsgrga7ZyG-hXfE-16">
          <mxGeometry width="50" height="260" as="geometry" />
        </mxCell>
        <mxCell id="J2HHeWsgrga7ZyG-hXfE-18" value="" style="ellipse;whiteSpace=wrap;html=1;aspect=fixed;fillColor=#CFE2F2;" vertex="1" parent="J2HHeWsgrga7ZyG-hXfE-16">
          <mxGeometry x="5" y="10" width="40" height="40" as="geometry" />
        </mxCell>
        <mxCell id="J2HHeWsgrga7ZyG-hXfE-19" value="" style="ellipse;whiteSpace=wrap;html=1;aspect=fixed;gradientColor=none;fillColor=#000000;" vertex="1" parent="J2HHeWsgrga7ZyG-hXfE-16">
          <mxGeometry x="20" y="140" width="10" height="10" as="geometry" />
        </mxCell>
        <mxCell id="J2HHeWsgrga7ZyG-hXfE-20" value="" style="ellipse;whiteSpace=wrap;html=1;aspect=fixed;fillColor=#CFE2F2;" vertex="1" parent="J2HHeWsgrga7ZyG-hXfE-16">
          <mxGeometry x="5" y="70" width="40" height="40" as="geometry" />
        </mxCell>
        <mxCell id="J2HHeWsgrga7ZyG-hXfE-21" value="" style="ellipse;whiteSpace=wrap;html=1;aspect=fixed;gradientColor=none;fillColor=#000000;" vertex="1" parent="J2HHeWsgrga7ZyG-hXfE-16">
          <mxGeometry x="20" y="170" width="10" height="10" as="geometry" />
        </mxCell>
        <mxCell id="J2HHeWsgrga7ZyG-hXfE-22" value="" style="ellipse;whiteSpace=wrap;html=1;aspect=fixed;fillColor=#CFE2F2;" vertex="1" parent="J2HHeWsgrga7ZyG-hXfE-16">
          <mxGeometry x="5" y="200" width="40" height="40" as="geometry" />
        </mxCell>
        <mxCell id="J2HHeWsgrga7ZyG-hXfE-23" value="" style="group" vertex="1" connectable="0" parent="1">
          <mxGeometry x="1614" y="329" width="50" height="260" as="geometry" />
        </mxCell>
        <mxCell id="J2HHeWsgrga7ZyG-hXfE-24" value="" style="rounded=0;whiteSpace=wrap;html=1;fillColor=#CFE2F2;" vertex="1" parent="J2HHeWsgrga7ZyG-hXfE-23">
          <mxGeometry width="50" height="260" as="geometry" />
        </mxCell>
        <mxCell id="J2HHeWsgrga7ZyG-hXfE-25" value="" style="ellipse;whiteSpace=wrap;html=1;aspect=fixed;fillColor=#CFE2F2;" vertex="1" parent="J2HHeWsgrga7ZyG-hXfE-23">
          <mxGeometry x="5" y="10" width="40" height="40" as="geometry" />
        </mxCell>
        <mxCell id="J2HHeWsgrga7ZyG-hXfE-26" value="" style="ellipse;whiteSpace=wrap;html=1;aspect=fixed;gradientColor=none;fillColor=#000000;" vertex="1" parent="J2HHeWsgrga7ZyG-hXfE-23">
          <mxGeometry x="20" y="140" width="10" height="10" as="geometry" />
        </mxCell>
        <mxCell id="J2HHeWsgrga7ZyG-hXfE-27" value="" style="ellipse;whiteSpace=wrap;html=1;aspect=fixed;fillColor=#CFE2F2;" vertex="1" parent="J2HHeWsgrga7ZyG-hXfE-23">
          <mxGeometry x="5" y="70" width="40" height="40" as="geometry" />
        </mxCell>
        <mxCell id="J2HHeWsgrga7ZyG-hXfE-28" value="" style="ellipse;whiteSpace=wrap;html=1;aspect=fixed;gradientColor=none;fillColor=#000000;" vertex="1" parent="J2HHeWsgrga7ZyG-hXfE-23">
          <mxGeometry x="20" y="170" width="10" height="10" as="geometry" />
        </mxCell>
        <mxCell id="J2HHeWsgrga7ZyG-hXfE-29" value="" style="ellipse;whiteSpace=wrap;html=1;aspect=fixed;fillColor=#CFE2F2;" vertex="1" parent="J2HHeWsgrga7ZyG-hXfE-23">
          <mxGeometry x="5" y="200" width="40" height="40" as="geometry" />
        </mxCell>
        <mxCell id="J2HHeWsgrga7ZyG-hXfE-48" value="" style="endArrow=none;html=1;rounded=0;fontSize=24;exitX=1;exitY=0;exitDx=0;exitDy=0;entryX=0;entryY=0;entryDx=0;entryDy=0;" edge="1" parent="1" source="J2HHeWsgrga7ZyG-hXfE-1" target="J2HHeWsgrga7ZyG-hXfE-10">
          <mxGeometry width="50" height="50" relative="1" as="geometry">
            <mxPoint x="1649" y="672" as="sourcePoint" />
            <mxPoint x="1811" y="610" as="targetPoint" />
          </mxGeometry>
        </mxCell>
        <mxCell id="J2HHeWsgrga7ZyG-hXfE-56" value="" style="endArrow=none;html=1;rounded=0;fontSize=24;exitX=1;exitY=1;exitDx=0;exitDy=0;entryX=0;entryY=1;entryDx=0;entryDy=0;" edge="1" parent="1" source="J2HHeWsgrga7ZyG-hXfE-1" target="J2HHeWsgrga7ZyG-hXfE-10">
          <mxGeometry width="50" height="50" relative="1" as="geometry">
            <mxPoint x="1301.0000000000002" y="494" as="sourcePoint" />
            <mxPoint x="1421" y="526.0000000000002" as="targetPoint" />
          </mxGeometry>
        </mxCell>
        <mxCell id="J2HHeWsgrga7ZyG-hXfE-57" value="" style="endArrow=none;html=1;rounded=0;fontSize=24;entryX=0;entryY=0;entryDx=0;entryDy=0;exitX=1;exitY=0;exitDx=0;exitDy=0;" edge="1" parent="1" source="J2HHeWsgrga7ZyG-hXfE-10" target="J2HHeWsgrga7ZyG-hXfE-24">
          <mxGeometry width="50" height="50" relative="1" as="geometry">
            <mxPoint x="1534" y="630" as="sourcePoint" />
            <mxPoint x="1431" y="536.0000000000002" as="targetPoint" />
          </mxGeometry>
        </mxCell>
        <mxCell id="J2HHeWsgrga7ZyG-hXfE-58" value="" style="endArrow=none;html=1;rounded=0;fontSize=24;exitX=1;exitY=1;exitDx=0;exitDy=0;entryX=0;entryY=1;entryDx=0;entryDy=0;" edge="1" parent="1" source="J2HHeWsgrga7ZyG-hXfE-10" target="J2HHeWsgrga7ZyG-hXfE-24">
          <mxGeometry width="50" height="50" relative="1" as="geometry">
            <mxPoint x="1321.0000000000002" y="514" as="sourcePoint" />
            <mxPoint x="1441" y="546.0000000000002" as="targetPoint" />
          </mxGeometry>
        </mxCell>
        <mxCell id="J2HHeWsgrga7ZyG-hXfE-59" value="" style="endArrow=none;html=1;rounded=0;fontSize=24;exitX=1;exitY=0;exitDx=0;exitDy=0;entryX=0;entryY=0;entryDx=0;entryDy=0;" edge="1" parent="1" source="J2HHeWsgrga7ZyG-hXfE-10" target="J2HHeWsgrga7ZyG-hXfE-17">
          <mxGeometry width="50" height="50" relative="1" as="geometry">
            <mxPoint x="1331.0000000000002" y="524" as="sourcePoint" />
            <mxPoint x="1451" y="556.0000000000002" as="targetPoint" />
          </mxGeometry>
        </mxCell>
        <mxCell id="J2HHeWsgrga7ZyG-hXfE-60" value="" style="endArrow=none;html=1;rounded=0;fontSize=24;exitX=1;exitY=1;exitDx=0;exitDy=0;entryX=0;entryY=1;entryDx=0;entryDy=0;" edge="1" parent="1" source="J2HHeWsgrga7ZyG-hXfE-10" target="J2HHeWsgrga7ZyG-hXfE-17">
          <mxGeometry width="50" height="50" relative="1" as="geometry">
            <mxPoint x="1341.0000000000002" y="534" as="sourcePoint" />
            <mxPoint x="1461" y="566.0000000000002" as="targetPoint" />
          </mxGeometry>
        </mxCell>
        <mxCell id="J2HHeWsgrga7ZyG-hXfE-61" value="" style="group" vertex="1" connectable="0" parent="1">
          <mxGeometry x="1389" y="516" width="50" height="196" as="geometry" />
        </mxCell>
        <mxCell id="J2HHeWsgrga7ZyG-hXfE-38" value="" style="group;fillColor=#CFE2F2;container=0;" vertex="1" connectable="0" parent="J2HHeWsgrga7ZyG-hXfE-61">
          <mxGeometry width="50" height="196" as="geometry" />
        </mxCell>
        <mxCell id="J2HHeWsgrga7ZyG-hXfE-10" value="" style="rounded=0;whiteSpace=wrap;html=1;fillColor=#CFE2F2;" vertex="1" parent="J2HHeWsgrga7ZyG-hXfE-61">
          <mxGeometry width="50" height="196" as="geometry" />
        </mxCell>
        <mxCell id="J2HHeWsgrga7ZyG-hXfE-12" value="" style="ellipse;whiteSpace=wrap;html=1;aspect=fixed;gradientColor=none;fillColor=#000000;" vertex="1" parent="J2HHeWsgrga7ZyG-hXfE-61">
          <mxGeometry x="20" y="76" width="10" height="10" as="geometry" />
        </mxCell>
        <mxCell id="J2HHeWsgrga7ZyG-hXfE-13" value="" style="ellipse;whiteSpace=wrap;html=1;aspect=fixed;fillColor=#CFE2F2;" vertex="1" parent="J2HHeWsgrga7ZyG-hXfE-61">
          <mxGeometry x="5" y="6" width="40" height="40" as="geometry" />
        </mxCell>
        <mxCell id="J2HHeWsgrga7ZyG-hXfE-14" value="" style="ellipse;whiteSpace=wrap;html=1;aspect=fixed;gradientColor=none;fillColor=#000000;" vertex="1" parent="J2HHeWsgrga7ZyG-hXfE-61">
          <mxGeometry x="20" y="106" width="10" height="10" as="geometry" />
        </mxCell>
        <mxCell id="J2HHeWsgrga7ZyG-hXfE-15" value="" style="ellipse;whiteSpace=wrap;html=1;aspect=fixed;fillColor=#CFE2F2;" vertex="1" parent="J2HHeWsgrga7ZyG-hXfE-61">
          <mxGeometry x="5" y="136" width="40" height="40" as="geometry" />
        </mxCell>
        <mxCell id="J2HHeWsgrga7ZyG-hXfE-62" value="W" style="text;html=1;align=center;verticalAlign=middle;resizable=0;points=[];autosize=1;strokeColor=none;fillColor=none;fontSize=24;" vertex="1" parent="1">
          <mxGeometry x="1308" y="632" width="33" height="33" as="geometry" />
        </mxCell>
        <mxCell id="J2HHeWsgrga7ZyG-hXfE-63" value="W&#39;" style="text;html=1;align=center;verticalAlign=middle;resizable=0;points=[];autosize=1;strokeColor=none;fillColor=none;fontSize=24;" vertex="1" parent="1">
          <mxGeometry x="1515" y="475" width="37" height="33" as="geometry" />
        </mxCell>
        <mxCell id="J2HHeWsgrga7ZyG-hXfE-64" value="W&#39;" style="text;html=1;align=center;verticalAlign=middle;resizable=0;points=[];autosize=1;strokeColor=none;fillColor=none;fontSize=24;" vertex="1" parent="1">
          <mxGeometry x="1515" y="723" width="37" height="33" as="geometry" />
        </mxCell>
        <mxCell id="J2HHeWsgrga7ZyG-hXfE-65" value="Input layer" style="text;html=1;align=center;verticalAlign=middle;resizable=0;points=[];autosize=1;strokeColor=none;fillColor=none;fontSize=24;" vertex="1" parent="1">
          <mxGeometry x="1205" y="442.5" width="122" height="33" as="geometry" />
        </mxCell>
        <mxCell id="J2HHeWsgrga7ZyG-hXfE-66" value="Output layer" style="text;html=1;align=center;verticalAlign=middle;resizable=0;points=[];autosize=1;strokeColor=none;fillColor=none;fontSize=24;" vertex="1" parent="1">
          <mxGeometry x="1568.5" y="287" width="141" height="33" as="geometry" />
        </mxCell>
        <mxCell id="J2HHeWsgrga7ZyG-hXfE-87" value="" style="group" vertex="1" connectable="0" parent="1">
          <mxGeometry x="380" y="317.5" width="50" height="196" as="geometry" />
        </mxCell>
        <mxCell id="J2HHeWsgrga7ZyG-hXfE-88" value="" style="group;fillColor=#CFE2F2;container=0;" vertex="1" connectable="0" parent="J2HHeWsgrga7ZyG-hXfE-87">
          <mxGeometry width="50" height="196" as="geometry" />
        </mxCell>
        <mxCell id="J2HHeWsgrga7ZyG-hXfE-89" value="&lt;span style=&quot;font-size: 36px&quot;&gt;·&lt;br&gt;&lt;/span&gt;&lt;span style=&quot;font-size: 36px&quot;&gt;·&lt;/span&gt;" style="rounded=0;whiteSpace=wrap;html=1;fillColor=#CFE2F2;" vertex="1" parent="J2HHeWsgrga7ZyG-hXfE-87">
          <mxGeometry width="50" height="196" as="geometry" />
        </mxCell>
        <mxCell id="J2HHeWsgrga7ZyG-hXfE-90" value="" style="ellipse;whiteSpace=wrap;html=1;aspect=fixed;fillColor=#CFE2F2;" vertex="1" parent="J2HHeWsgrga7ZyG-hXfE-87">
          <mxGeometry x="5" y="6" width="40" height="40" as="geometry" />
        </mxCell>
        <mxCell id="J2HHeWsgrga7ZyG-hXfE-91" value="" style="ellipse;whiteSpace=wrap;html=1;aspect=fixed;fillColor=#CFE2F2;" vertex="1" parent="J2HHeWsgrga7ZyG-hXfE-87">
          <mxGeometry x="5" y="136" width="40" height="40" as="geometry" />
        </mxCell>
        <mxCell id="J2HHeWsgrga7ZyG-hXfE-102" value="" style="group" vertex="1" connectable="0" parent="1">
          <mxGeometry x="223" y="280" width="50" height="271" as="geometry" />
        </mxCell>
        <mxCell id="J2HHeWsgrga7ZyG-hXfE-71" value="&lt;span style=&quot;font-size: 36px&quot;&gt;&lt;br&gt;·&lt;br&gt;&lt;/span&gt;&lt;span style=&quot;font-size: 36px&quot;&gt;·&lt;br&gt;&lt;/span&gt;" style="rounded=0;whiteSpace=wrap;html=1;fillColor=#CFE2F2;" vertex="1" parent="J2HHeWsgrga7ZyG-hXfE-102">
          <mxGeometry width="50" height="271" as="geometry" />
        </mxCell>
        <mxCell id="J2HHeWsgrga7ZyG-hXfE-75" value="" style="ellipse;whiteSpace=wrap;html=1;aspect=fixed;fillColor=#CFE2F2;" vertex="1" parent="J2HHeWsgrga7ZyG-hXfE-102">
          <mxGeometry x="8.469999999999999" y="213.00265306122446" width="33.06233062330623" height="33.06233062330623" as="geometry" />
        </mxCell>
        <mxCell id="J2HHeWsgrga7ZyG-hXfE-100" value="" style="group" vertex="1" connectable="0" parent="J2HHeWsgrga7ZyG-hXfE-102">
          <mxGeometry x="5" y="9.336734693877588" width="40" height="141.60714285714286" as="geometry" />
        </mxCell>
        <mxCell id="J2HHeWsgrga7ZyG-hXfE-73" value="" style="ellipse;whiteSpace=wrap;html=1;aspect=fixed;fillColor=#CFE2F2;" vertex="1" parent="J2HHeWsgrga7ZyG-hXfE-100">
          <mxGeometry x="3.47" width="33.06233062330623" height="33.06233062330623" as="geometry" />
        </mxCell>
        <mxCell id="J2HHeWsgrga7ZyG-hXfE-95" value="" style="ellipse;whiteSpace=wrap;html=1;aspect=fixed;fillColor=#CFE2F2;" vertex="1" parent="J2HHeWsgrga7ZyG-hXfE-100">
          <mxGeometry x="3.469999999999999" y="52.60224489795928" width="33.06233062330623" height="33.06233062330623" as="geometry" />
        </mxCell>
        <mxCell id="J2HHeWsgrga7ZyG-hXfE-103" value="" style="group" vertex="1" connectable="0" parent="1">
          <mxGeometry x="592" y="484" width="50" height="271" as="geometry" />
        </mxCell>
        <mxCell id="J2HHeWsgrga7ZyG-hXfE-104" value="&lt;span style=&quot;font-size: 36px&quot;&gt;&lt;br&gt;·&lt;br&gt;&lt;/span&gt;&lt;span style=&quot;font-size: 36px&quot;&gt;·&lt;br&gt;&lt;/span&gt;" style="rounded=0;whiteSpace=wrap;html=1;fillColor=#CFE2F2;" vertex="1" parent="J2HHeWsgrga7ZyG-hXfE-103">
          <mxGeometry width="50" height="271" as="geometry" />
        </mxCell>
        <mxCell id="J2HHeWsgrga7ZyG-hXfE-105" value="" style="ellipse;whiteSpace=wrap;html=1;aspect=fixed;fillColor=#CFE2F2;" vertex="1" parent="J2HHeWsgrga7ZyG-hXfE-103">
          <mxGeometry x="8.469999999999999" y="213.00265306122446" width="33.06233062330623" height="33.06233062330623" as="geometry" />
        </mxCell>
        <mxCell id="J2HHeWsgrga7ZyG-hXfE-106" value="" style="group" vertex="1" connectable="0" parent="J2HHeWsgrga7ZyG-hXfE-103">
          <mxGeometry x="5" y="9.336734693877588" width="40" height="141.60714285714286" as="geometry" />
        </mxCell>
        <mxCell id="J2HHeWsgrga7ZyG-hXfE-107" value="" style="ellipse;whiteSpace=wrap;html=1;aspect=fixed;fillColor=#CFE2F2;" vertex="1" parent="J2HHeWsgrga7ZyG-hXfE-106">
          <mxGeometry x="3.47" width="33.06233062330623" height="33.06233062330623" as="geometry" />
        </mxCell>
        <mxCell id="J2HHeWsgrga7ZyG-hXfE-108" value="" style="ellipse;whiteSpace=wrap;html=1;aspect=fixed;fillColor=#CFE2F2;" vertex="1" parent="J2HHeWsgrga7ZyG-hXfE-106">
          <mxGeometry x="3.469999999999999" y="52.60224489795928" width="33.06233062330623" height="33.06233062330623" as="geometry" />
        </mxCell>
        <mxCell id="J2HHeWsgrga7ZyG-hXfE-109" value="" style="group" vertex="1" connectable="0" parent="1">
          <mxGeometry x="592" y="161" width="50" height="271" as="geometry" />
        </mxCell>
        <mxCell id="J2HHeWsgrga7ZyG-hXfE-110" value="&lt;span style=&quot;font-size: 36px&quot;&gt;&lt;br&gt;·&lt;br&gt;&lt;/span&gt;&lt;span style=&quot;font-size: 36px&quot;&gt;·&lt;br&gt;&lt;/span&gt;" style="rounded=0;whiteSpace=wrap;html=1;fillColor=#CFE2F2;" vertex="1" parent="J2HHeWsgrga7ZyG-hXfE-109">
          <mxGeometry width="50" height="271" as="geometry" />
        </mxCell>
        <mxCell id="J2HHeWsgrga7ZyG-hXfE-111" value="" style="ellipse;whiteSpace=wrap;html=1;aspect=fixed;fillColor=#CFE2F2;" vertex="1" parent="J2HHeWsgrga7ZyG-hXfE-109">
          <mxGeometry x="8.469999999999999" y="213.00265306122446" width="33.06233062330623" height="33.06233062330623" as="geometry" />
        </mxCell>
        <mxCell id="J2HHeWsgrga7ZyG-hXfE-112" value="" style="group" vertex="1" connectable="0" parent="J2HHeWsgrga7ZyG-hXfE-109">
          <mxGeometry x="5" y="9.336734693877588" width="40" height="141.60714285714286" as="geometry" />
        </mxCell>
        <mxCell id="J2HHeWsgrga7ZyG-hXfE-113" value="" style="ellipse;whiteSpace=wrap;html=1;aspect=fixed;fillColor=#CFE2F2;" vertex="1" parent="J2HHeWsgrga7ZyG-hXfE-112">
          <mxGeometry x="3.47" width="33.06233062330623" height="33.06233062330623" as="geometry" />
        </mxCell>
        <mxCell id="J2HHeWsgrga7ZyG-hXfE-114" value="" style="ellipse;whiteSpace=wrap;html=1;aspect=fixed;fillColor=#CFE2F2;" vertex="1" parent="J2HHeWsgrga7ZyG-hXfE-112">
          <mxGeometry x="3.469999999999999" y="52.60224489795928" width="33.06233062330623" height="33.06233062330623" as="geometry" />
        </mxCell>
        <mxCell id="J2HHeWsgrga7ZyG-hXfE-115" value="" style="endArrow=none;html=1;rounded=0;fontSize=36;exitX=1;exitY=0;exitDx=0;exitDy=0;entryX=0;entryY=0;entryDx=0;entryDy=0;" edge="1" parent="1" source="J2HHeWsgrga7ZyG-hXfE-71" target="J2HHeWsgrga7ZyG-hXfE-89">
          <mxGeometry width="50" height="50" relative="1" as="geometry">
            <mxPoint x="443" y="434" as="sourcePoint" />
            <mxPoint x="405" y="289" as="targetPoint" />
          </mxGeometry>
        </mxCell>
        <mxCell id="J2HHeWsgrga7ZyG-hXfE-122" value="" style="endArrow=none;html=1;rounded=0;fontSize=36;exitX=1;exitY=1;exitDx=0;exitDy=0;entryX=0;entryY=1;entryDx=0;entryDy=0;" edge="1" parent="1" source="J2HHeWsgrga7ZyG-hXfE-71" target="J2HHeWsgrga7ZyG-hXfE-89">
          <mxGeometry width="50" height="50" relative="1" as="geometry">
            <mxPoint x="283" y="290" as="sourcePoint" />
            <mxPoint x="382" y="338" as="targetPoint" />
          </mxGeometry>
        </mxCell>
        <mxCell id="J2HHeWsgrga7ZyG-hXfE-123" value="" style="endArrow=none;html=1;rounded=0;fontSize=36;exitX=1;exitY=0;exitDx=0;exitDy=0;entryX=0;entryY=0;entryDx=0;entryDy=0;" edge="1" parent="1" source="J2HHeWsgrga7ZyG-hXfE-89" target="J2HHeWsgrga7ZyG-hXfE-110">
          <mxGeometry width="50" height="50" relative="1" as="geometry">
            <mxPoint x="438" y="336" as="sourcePoint" />
            <mxPoint x="528" y="238" as="targetPoint" />
          </mxGeometry>
        </mxCell>
        <mxCell id="J2HHeWsgrga7ZyG-hXfE-125" value="" style="endArrow=none;html=1;rounded=0;fontSize=36;exitX=1;exitY=0;exitDx=0;exitDy=0;entryX=0;entryY=0;entryDx=0;entryDy=0;" edge="1" parent="1" source="J2HHeWsgrga7ZyG-hXfE-89" target="J2HHeWsgrga7ZyG-hXfE-104">
          <mxGeometry width="50" height="50" relative="1" as="geometry">
            <mxPoint x="458" y="356" as="sourcePoint" />
            <mxPoint x="572" y="508" as="targetPoint" />
          </mxGeometry>
        </mxCell>
        <mxCell id="J2HHeWsgrga7ZyG-hXfE-126" value="" style="endArrow=none;html=1;rounded=0;fontSize=36;exitX=1;exitY=1;exitDx=0;exitDy=0;entryX=0;entryY=1;entryDx=0;entryDy=0;" edge="1" parent="1" source="J2HHeWsgrga7ZyG-hXfE-89" target="J2HHeWsgrga7ZyG-hXfE-104">
          <mxGeometry width="50" height="50" relative="1" as="geometry">
            <mxPoint x="447" y="496" as="sourcePoint" />
            <mxPoint x="537" y="398" as="targetPoint" />
          </mxGeometry>
        </mxCell>
        <mxCell id="J2HHeWsgrga7ZyG-hXfE-124" value="" style="endArrow=none;html=1;rounded=0;fontSize=36;exitX=1;exitY=1;exitDx=0;exitDy=0;entryX=0;entryY=1;entryDx=0;entryDy=0;" edge="1" parent="1" source="J2HHeWsgrga7ZyG-hXfE-89" target="J2HHeWsgrga7ZyG-hXfE-110">
          <mxGeometry width="50" height="50" relative="1" as="geometry">
            <mxPoint x="417" y="529" as="sourcePoint" />
            <mxPoint x="507" y="431" as="targetPoint" />
          </mxGeometry>
        </mxCell>
        <mxCell id="J2HHeWsgrga7ZyG-hXfE-127" value="W" style="text;html=1;align=center;verticalAlign=middle;resizable=0;points=[];autosize=1;strokeColor=none;fillColor=none;fontSize=24;" vertex="1" parent="1">
          <mxGeometry x="295" y="471" width="33" height="33" as="geometry" />
        </mxCell>
        <mxCell id="J2HHeWsgrga7ZyG-hXfE-128" value="W&#39;" style="text;html=1;align=center;verticalAlign=middle;resizable=0;points=[];autosize=1;strokeColor=none;fillColor=none;fontSize=24;" vertex="1" parent="1">
          <mxGeometry x="502" y="314" width="37" height="33" as="geometry" />
        </mxCell>
        <mxCell id="J2HHeWsgrga7ZyG-hXfE-129" value="W&#39;" style="text;html=1;align=center;verticalAlign=middle;resizable=0;points=[];autosize=1;strokeColor=none;fillColor=none;fontSize=24;" vertex="1" parent="1">
          <mxGeometry x="502" y="562" width="37" height="33" as="geometry" />
        </mxCell>
        <mxCell id="J2HHeWsgrga7ZyG-hXfE-130" value="Input layer" style="text;html=1;align=center;verticalAlign=middle;resizable=0;points=[];autosize=1;strokeColor=none;fillColor=none;fontSize=24;" vertex="1" parent="1">
          <mxGeometry x="193" y="232" width="122" height="33" as="geometry" />
        </mxCell>
        <mxCell id="J2HHeWsgrga7ZyG-hXfE-131" value="Output layer" style="text;html=1;align=center;verticalAlign=middle;resizable=0;points=[];autosize=1;strokeColor=none;fillColor=none;fontSize=24;" vertex="1" parent="1">
          <mxGeometry x="551.5" y="116" width="141" height="33" as="geometry" />
        </mxCell>
        <mxCell id="J2HHeWsgrga7ZyG-hXfE-132" value="" style="group" vertex="1" connectable="0" parent="1">
          <mxGeometry x="381" y="1869.5" width="50" height="196" as="geometry" />
        </mxCell>
        <mxCell id="J2HHeWsgrga7ZyG-hXfE-133" value="" style="group;fillColor=#CFE2F2;container=0;" vertex="1" connectable="0" parent="J2HHeWsgrga7ZyG-hXfE-132">
          <mxGeometry width="50" height="196" as="geometry" />
        </mxCell>
        <mxCell id="J2HHeWsgrga7ZyG-hXfE-134" value="&lt;span style=&quot;font-size: 36px&quot;&gt;·&lt;br&gt;&lt;/span&gt;&lt;span style=&quot;font-size: 36px&quot;&gt;·&lt;/span&gt;" style="rounded=0;whiteSpace=wrap;html=1;fillColor=#CFE2F2;" vertex="1" parent="J2HHeWsgrga7ZyG-hXfE-132">
          <mxGeometry width="50" height="196" as="geometry" />
        </mxCell>
        <mxCell id="J2HHeWsgrga7ZyG-hXfE-135" value="" style="ellipse;whiteSpace=wrap;html=1;aspect=fixed;fillColor=#CFE2F2;" vertex="1" parent="J2HHeWsgrga7ZyG-hXfE-132">
          <mxGeometry x="5" y="6" width="40" height="40" as="geometry" />
        </mxCell>
        <mxCell id="J2HHeWsgrga7ZyG-hXfE-136" value="" style="ellipse;whiteSpace=wrap;html=1;aspect=fixed;fillColor=#CFE2F2;" vertex="1" parent="J2HHeWsgrga7ZyG-hXfE-132">
          <mxGeometry x="5" y="136" width="40" height="40" as="geometry" />
        </mxCell>
        <mxCell id="J2HHeWsgrga7ZyG-hXfE-137" value="" style="group" vertex="1" connectable="0" parent="1">
          <mxGeometry x="616" y="1832" width="50" height="271" as="geometry" />
        </mxCell>
        <mxCell id="J2HHeWsgrga7ZyG-hXfE-138" value="&lt;span style=&quot;font-size: 36px&quot;&gt;&lt;br&gt;·&lt;br&gt;&lt;/span&gt;&lt;span style=&quot;font-size: 36px&quot;&gt;·&lt;br&gt;&lt;/span&gt;" style="rounded=0;whiteSpace=wrap;html=1;fillColor=#CFE2F2;" vertex="1" parent="J2HHeWsgrga7ZyG-hXfE-137">
          <mxGeometry width="50" height="271" as="geometry" />
        </mxCell>
        <mxCell id="J2HHeWsgrga7ZyG-hXfE-139" value="" style="ellipse;whiteSpace=wrap;html=1;aspect=fixed;fillColor=#CFE2F2;" vertex="1" parent="J2HHeWsgrga7ZyG-hXfE-137">
          <mxGeometry x="8.469999999999999" y="213.00265306122446" width="33.06233062330623" height="33.06233062330623" as="geometry" />
        </mxCell>
        <mxCell id="J2HHeWsgrga7ZyG-hXfE-140" value="" style="group" vertex="1" connectable="0" parent="J2HHeWsgrga7ZyG-hXfE-137">
          <mxGeometry x="5" y="9.336734693877588" width="40" height="141.60714285714286" as="geometry" />
        </mxCell>
        <mxCell id="J2HHeWsgrga7ZyG-hXfE-141" value="" style="ellipse;whiteSpace=wrap;html=1;aspect=fixed;fillColor=#CFE2F2;" vertex="1" parent="J2HHeWsgrga7ZyG-hXfE-140">
          <mxGeometry x="3.47" width="33.06233062330623" height="33.06233062330623" as="geometry" />
        </mxCell>
        <mxCell id="J2HHeWsgrga7ZyG-hXfE-142" value="" style="ellipse;whiteSpace=wrap;html=1;aspect=fixed;fillColor=#CFE2F2;" vertex="1" parent="J2HHeWsgrga7ZyG-hXfE-140">
          <mxGeometry x="3.469999999999999" y="52.60224489795928" width="33.06233062330623" height="33.06233062330623" as="geometry" />
        </mxCell>
        <mxCell id="J2HHeWsgrga7ZyG-hXfE-143" value="" style="group" vertex="1" connectable="0" parent="1">
          <mxGeometry x="157" y="2011.5" width="50" height="271" as="geometry" />
        </mxCell>
        <mxCell id="J2HHeWsgrga7ZyG-hXfE-144" value="&lt;span style=&quot;font-size: 36px&quot;&gt;&lt;br&gt;·&lt;br&gt;&lt;/span&gt;&lt;span style=&quot;font-size: 36px&quot;&gt;·&lt;br&gt;&lt;/span&gt;" style="rounded=0;whiteSpace=wrap;html=1;fillColor=#CFE2F2;" vertex="1" parent="J2HHeWsgrga7ZyG-hXfE-143">
          <mxGeometry width="50" height="271" as="geometry" />
        </mxCell>
        <mxCell id="J2HHeWsgrga7ZyG-hXfE-145" value="" style="ellipse;whiteSpace=wrap;html=1;aspect=fixed;fillColor=#CFE2F2;" vertex="1" parent="J2HHeWsgrga7ZyG-hXfE-143">
          <mxGeometry x="8.469999999999999" y="213.00265306122446" width="33.06233062330623" height="33.06233062330623" as="geometry" />
        </mxCell>
        <mxCell id="J2HHeWsgrga7ZyG-hXfE-146" value="" style="group" vertex="1" connectable="0" parent="J2HHeWsgrga7ZyG-hXfE-143">
          <mxGeometry x="5" y="9.336734693877588" width="40" height="141.60714285714286" as="geometry" />
        </mxCell>
        <mxCell id="J2HHeWsgrga7ZyG-hXfE-147" value="" style="ellipse;whiteSpace=wrap;html=1;aspect=fixed;fillColor=#CFE2F2;" vertex="1" parent="J2HHeWsgrga7ZyG-hXfE-146">
          <mxGeometry x="3.47" width="33.06233062330623" height="33.06233062330623" as="geometry" />
        </mxCell>
        <mxCell id="J2HHeWsgrga7ZyG-hXfE-148" value="" style="ellipse;whiteSpace=wrap;html=1;aspect=fixed;fillColor=#CFE2F2;" vertex="1" parent="J2HHeWsgrga7ZyG-hXfE-146">
          <mxGeometry x="3.469999999999999" y="52.60224489795928" width="33.06233062330623" height="33.06233062330623" as="geometry" />
        </mxCell>
        <mxCell id="J2HHeWsgrga7ZyG-hXfE-149" value="" style="group" vertex="1" connectable="0" parent="1">
          <mxGeometry x="157" y="1688.5" width="50" height="271" as="geometry" />
        </mxCell>
        <mxCell id="J2HHeWsgrga7ZyG-hXfE-150" value="&lt;span style=&quot;font-size: 36px&quot;&gt;&lt;br&gt;·&lt;br&gt;&lt;/span&gt;&lt;span style=&quot;font-size: 36px&quot;&gt;·&lt;br&gt;&lt;/span&gt;" style="rounded=0;whiteSpace=wrap;html=1;fillColor=#CFE2F2;" vertex="1" parent="J2HHeWsgrga7ZyG-hXfE-149">
          <mxGeometry width="50" height="271" as="geometry" />
        </mxCell>
        <mxCell id="J2HHeWsgrga7ZyG-hXfE-151" value="" style="ellipse;whiteSpace=wrap;html=1;aspect=fixed;fillColor=#CFE2F2;" vertex="1" parent="J2HHeWsgrga7ZyG-hXfE-149">
          <mxGeometry x="8.469999999999999" y="213.00265306122446" width="33.06233062330623" height="33.06233062330623" as="geometry" />
        </mxCell>
        <mxCell id="J2HHeWsgrga7ZyG-hXfE-152" value="" style="group" vertex="1" connectable="0" parent="J2HHeWsgrga7ZyG-hXfE-149">
          <mxGeometry x="5" y="9.336734693877588" width="40" height="141.60714285714286" as="geometry" />
        </mxCell>
        <mxCell id="J2HHeWsgrga7ZyG-hXfE-153" value="" style="ellipse;whiteSpace=wrap;html=1;aspect=fixed;fillColor=#CFE2F2;" vertex="1" parent="J2HHeWsgrga7ZyG-hXfE-152">
          <mxGeometry x="3.47" width="33.06233062330623" height="33.06233062330623" as="geometry" />
        </mxCell>
        <mxCell id="J2HHeWsgrga7ZyG-hXfE-154" value="" style="ellipse;whiteSpace=wrap;html=1;aspect=fixed;fillColor=#CFE2F2;" vertex="1" parent="J2HHeWsgrga7ZyG-hXfE-152">
          <mxGeometry x="3.469999999999999" y="52.60224489795928" width="33.06233062330623" height="33.06233062330623" as="geometry" />
        </mxCell>
        <mxCell id="J2HHeWsgrga7ZyG-hXfE-155" value="" style="endArrow=none;html=1;rounded=0;fontSize=36;exitX=0;exitY=0;exitDx=0;exitDy=0;entryX=1;entryY=0;entryDx=0;entryDy=0;" edge="1" parent="1" source="J2HHeWsgrga7ZyG-hXfE-138" target="J2HHeWsgrga7ZyG-hXfE-134">
          <mxGeometry width="50" height="50" relative="1" as="geometry">
            <mxPoint x="8" y="1961.5" as="sourcePoint" />
            <mxPoint x="-30" y="1816.5" as="targetPoint" />
          </mxGeometry>
        </mxCell>
        <mxCell id="J2HHeWsgrga7ZyG-hXfE-156" value="" style="endArrow=none;html=1;rounded=0;fontSize=36;exitX=0;exitY=1;exitDx=0;exitDy=0;entryX=1;entryY=1;entryDx=0;entryDy=0;" edge="1" parent="1" source="J2HHeWsgrga7ZyG-hXfE-138" target="J2HHeWsgrga7ZyG-hXfE-134">
          <mxGeometry width="50" height="50" relative="1" as="geometry">
            <mxPoint x="-152" y="1817.5" as="sourcePoint" />
            <mxPoint x="-53" y="1865.5" as="targetPoint" />
          </mxGeometry>
        </mxCell>
        <mxCell id="J2HHeWsgrga7ZyG-hXfE-157" value="" style="endArrow=none;html=1;rounded=0;fontSize=36;exitX=0;exitY=0;exitDx=0;exitDy=0;entryX=1;entryY=0;entryDx=0;entryDy=0;" edge="1" parent="1" source="J2HHeWsgrga7ZyG-hXfE-134" target="J2HHeWsgrga7ZyG-hXfE-150">
          <mxGeometry width="50" height="50" relative="1" as="geometry">
            <mxPoint x="3" y="1863.5" as="sourcePoint" />
            <mxPoint x="93" y="1765.5" as="targetPoint" />
          </mxGeometry>
        </mxCell>
        <mxCell id="J2HHeWsgrga7ZyG-hXfE-158" value="" style="endArrow=none;html=1;rounded=0;fontSize=36;exitX=0;exitY=0;exitDx=0;exitDy=0;entryX=1;entryY=0;entryDx=0;entryDy=0;" edge="1" parent="1" source="J2HHeWsgrga7ZyG-hXfE-134" target="J2HHeWsgrga7ZyG-hXfE-144">
          <mxGeometry width="50" height="50" relative="1" as="geometry">
            <mxPoint x="23" y="1883.5" as="sourcePoint" />
            <mxPoint x="137" y="2035.5" as="targetPoint" />
          </mxGeometry>
        </mxCell>
        <mxCell id="J2HHeWsgrga7ZyG-hXfE-159" value="" style="endArrow=none;html=1;rounded=0;fontSize=36;exitX=0;exitY=1;exitDx=0;exitDy=0;entryX=1;entryY=1;entryDx=0;entryDy=0;" edge="1" parent="1" source="J2HHeWsgrga7ZyG-hXfE-134" target="J2HHeWsgrga7ZyG-hXfE-144">
          <mxGeometry width="50" height="50" relative="1" as="geometry">
            <mxPoint x="12" y="2023.5" as="sourcePoint" />
            <mxPoint x="102" y="1925.5" as="targetPoint" />
          </mxGeometry>
        </mxCell>
        <mxCell id="J2HHeWsgrga7ZyG-hXfE-160" value="" style="endArrow=none;html=1;rounded=0;fontSize=36;exitX=0;exitY=1;exitDx=0;exitDy=0;entryX=1;entryY=1;entryDx=0;entryDy=0;" edge="1" parent="1" source="J2HHeWsgrga7ZyG-hXfE-134" target="J2HHeWsgrga7ZyG-hXfE-150">
          <mxGeometry width="50" height="50" relative="1" as="geometry">
            <mxPoint x="-18" y="2056.5" as="sourcePoint" />
            <mxPoint x="72" y="1958.5" as="targetPoint" />
          </mxGeometry>
        </mxCell>
        <mxCell id="J2HHeWsgrga7ZyG-hXfE-161" value="W" style="text;html=1;align=center;verticalAlign=middle;resizable=0;points=[];autosize=1;strokeColor=none;fillColor=none;fontSize=24;" vertex="1" parent="1">
          <mxGeometry x="232" y="1849" width="33" height="33" as="geometry" />
        </mxCell>
        <mxCell id="J2HHeWsgrga7ZyG-hXfE-162" value="W&#39;" style="text;html=1;align=center;verticalAlign=middle;resizable=0;points=[];autosize=1;strokeColor=none;fillColor=none;fontSize=24;" vertex="1" parent="1">
          <mxGeometry x="482" y="1956" width="37" height="33" as="geometry" />
        </mxCell>
        <mxCell id="J2HHeWsgrga7ZyG-hXfE-164" value="Input layer" style="text;html=1;align=center;verticalAlign=middle;resizable=0;points=[];autosize=1;strokeColor=none;fillColor=none;fontSize=24;" vertex="1" parent="1">
          <mxGeometry x="123.5" y="1640" width="122" height="33" as="geometry" />
        </mxCell>
        <mxCell id="J2HHeWsgrga7ZyG-hXfE-165" value="W" style="text;html=1;align=center;verticalAlign=middle;resizable=0;points=[];autosize=1;strokeColor=none;fillColor=none;fontSize=24;" vertex="1" parent="1">
          <mxGeometry x="218" y="2168" width="33" height="33" as="geometry" />
        </mxCell>
        <mxCell id="J2HHeWsgrga7ZyG-hXfE-166" value="Output layer" style="text;html=1;align=center;verticalAlign=middle;resizable=0;points=[];autosize=1;strokeColor=none;fillColor=none;fontSize=24;" vertex="1" parent="1">
          <mxGeometry x="566" y="1782" width="141" height="33" as="geometry" />
        </mxCell>
      </root>
    </mxGraphModel>
  </diagram>
</mxfile>
